<?xml version="1.0" standalone="no"?>
<!DOCTYPE svg PUBLIC "-//W3C//DTD SVG 20010904//EN"
 "http://www.w3.org/TR/2001/REC-SVG-20010904/DTD/svg10.dtd">
<svg version="1.0" xmlns="http://www.w3.org/2000/svg"
 width="200.000000pt" height="200.000000pt" viewBox="0 0 200.000000 200.000000"
 preserveAspectRatio="xMidYMid meet">

<g transform="translate(0.000000,200.000000) scale(0.100000,-0.100000)"
fill="#000000" stroke="none">
<path d="M147 1990 c-49 -15 -98 -61 -123 -114 l-24 -51 0 -826 0 -825 28 -55
c18 -35 42 -64 70 -84 l44 -30 858 0 858 0 44 30 c28 20 52 49 71 84 l27 55 0
826 0 826 -27 55 c-19 35 -43 64 -71 84 l-44 30 -841 2 c-463 1 -855 -2 -870
-7z m910 -401 c64 -24 105 -86 105 -158 -1 -60 -13 -89 -52 -128 -69 -68 -191
-61 -249 13 -51 65 -50 162 2 221 51 58 126 78 194 52z m14 -615 c40 -20 87
-79 100 -126 38 -142 -64 -358 -202 -428 -47 -24 -77 -25 -101 -3 -27 24 -23
38 31 97 48 53 79 116 66 136 -3 5 -15 10 -25 10 -11 0 -36 15 -56 32 -154
135 5 375 187 282z"/>
</g>
</svg>
